<svg width="185" height="185" viewBox="0 0 185 185" fill="none" xmlns="http://www.w3.org/2000/svg">
<path d="M30.8333 15.4167H92.5C98.6331 15.4167 104.515 17.853 108.852 22.1898C113.189 26.5266 115.625 32.4085 115.625 38.5417V41.6667C115.625 52.7124 124.579 61.6667 135.625 61.6667H138.75C144.883 61.6667 150.765 64.103 155.102 68.4398C159.439 72.7766 161.875 78.6585 161.875 84.7917V146.458C161.875 152.591 159.439 158.473 155.102 162.81C150.765 167.147 144.883 169.583 138.75 169.583H77.0833C70.9502 169.583 65.0683 167.147 60.7315 162.81C56.3947 158.473 53.9583 152.591 53.9583 146.458V143.333C53.9583 132.288 45.004 123.333 33.9583 123.333H30.8333C24.7002 123.333 18.8183 120.897 14.4815 116.56C10.1447 112.223 7.70833 106.341 7.70833 100.208V38.5417C7.70833 32.4085 10.1447 26.5266 14.4815 22.1898C18.8183 17.853 24.7002 15.4167 30.8333 15.4167ZM107.917 38.5417C107.917 34.4529 106.292 30.5316 103.401 27.6404C100.51 24.7492 96.5888 23.125 92.5 23.125H30.8333C26.7446 23.125 22.8233 24.7492 19.9321 27.6404C17.0409 30.5316 15.4167 34.4529 15.4167 38.5417V100.208C15.4167 104.297 17.0409 108.218 19.9321 111.11C22.8233 114.001 26.7446 115.625 30.8333 115.625H41.6667C52.7123 115.625 61.6667 124.579 61.6667 135.625V146.458C61.6667 150.547 63.2909 154.468 66.1821 157.36C69.0733 160.251 72.9946 161.875 77.0833 161.875H138.75C142.839 161.875 146.76 160.251 149.651 157.36C152.542 154.468 154.167 150.547 154.167 146.458V84.7917C154.167 80.7029 152.542 76.7816 149.651 73.8904C146.76 70.9993 142.839 69.375 138.75 69.375H127.917C116.871 69.375 107.917 60.4207 107.917 49.375V38.5417Z" fill="#2C7FB8"/>
<g filter="url(#filter0_d_1_16)">
<path d="M60.4598 53.6347C55.1914 53.6347 50.3233 55.3201 46.3247 58.1624V38.1834C46.3246 35.3209 44.0179 33 41.1713 33C38.3246 33 36.0178 35.3209 36.0178 38.1834V76.3628C35.9672 77.0091 36.0239 80.7532 36.1942 81.8161C37.8874 93.7872 48.0916 103 60.4598 103C74.0136 103 85 91.9499 85 78.3174C84.9999 64.6848 74.0136 53.6347 60.4598 53.6347ZM60.4598 92.5346C52.653 92.5346 46.3247 86.1695 46.3247 78.3173C46.3247 70.4651 52.653 64.1001 60.4598 64.1001C68.2666 64.1001 74.595 70.4651 74.595 78.3173C74.595 86.1695 68.2666 92.5346 60.4598 92.5346Z" fill="#2C7FB8"/>
</g>
<g filter="url(#filter1_d_1_16)">
<path d="M102.306 103.293C104.216 102.488 106.408 103.399 107.205 105.328L113.257 119.985C116.661 128.23 128.339 128.23 131.743 119.985L137.795 105.328C138.592 103.399 140.784 102.488 142.694 103.293C144.605 104.097 145.507 106.31 144.71 108.238L125.958 153.669C125.371 155.077 124.012 156 122.5 156C120.988 156 119.617 155.077 119.042 153.669L100.29 108.238C99.493 106.31 100.395 104.097 102.306 103.293Z" fill="#2C7FB8"/>
</g>
<defs>
<filter id="filter0_d_1_16" x="32" y="33" width="57" height="78" filterUnits="userSpaceOnUse" color-interpolation-filters="sRGB">
<feFlood flood-opacity="0" result="BackgroundImageFix"/>
<feColorMatrix in="SourceAlpha" type="matrix" values="0 0 0 0 0 0 0 0 0 0 0 0 0 0 0 0 0 0 127 0" result="hardAlpha"/>
<feOffset dy="4"/>
<feGaussianBlur stdDeviation="2"/>
<feComposite in2="hardAlpha" operator="out"/>
<feColorMatrix type="matrix" values="0 0 0 0 0 0 0 0 0 0 0 0 0 0 0 0 0 0 0.25 0"/>
<feBlend mode="normal" in2="BackgroundImageFix" result="effect1_dropShadow_1_16"/>
<feBlend mode="normal" in="SourceGraphic" in2="effect1_dropShadow_1_16" result="shape"/>
</filter>
<filter id="filter1_d_1_16" x="96" y="103" width="53" height="61" filterUnits="userSpaceOnUse" color-interpolation-filters="sRGB">
<feFlood flood-opacity="0" result="BackgroundImageFix"/>
<feColorMatrix in="SourceAlpha" type="matrix" values="0 0 0 0 0 0 0 0 0 0 0 0 0 0 0 0 0 0 127 0" result="hardAlpha"/>
<feOffset dy="4"/>
<feGaussianBlur stdDeviation="2"/>
<feComposite in2="hardAlpha" operator="out"/>
<feColorMatrix type="matrix" values="0 0 0 0 0 0 0 0 0 0 0 0 0 0 0 0 0 0 0.25 0"/>
<feBlend mode="normal" in2="BackgroundImageFix" result="effect1_dropShadow_1_16"/>
<feBlend mode="normal" in="SourceGraphic" in2="effect1_dropShadow_1_16" result="shape"/>
</filter>
</defs>
</svg>
